# OBJ File Generated by UnrealEd

mtllib red_wall.mtl
g SM_wall_02_59

v 0.0000 -0.0000 10.0000
v 400.0000 0.0000 0.0000
v 400.0000 -0.0000 10.0000
v 0.0000 0.0000 0.0000
v 400.0000 400.0000 0.0000
v 0.0000 400.0000 0.0000
v 0.0000 400.0000 10.0000
v 400.0000 400.0000 10.0000
v 0.0000 400.0000 10.0000
v 0.0000 -0.0000 10.0000
v 400.0000 400.0000 10.0000
v 400.0000 -0.0000 10.0000
v 400.0000 400.0000 10.0000
v 400.0000 -0.0000 10.0000
v 400.0000 400.0000 0.0000
v 400.0000 0.0000 0.0000
v 0.0000 400.0000 0.0000
v 0.0000 0.0000 0.0000
v 0.0000 400.0000 10.0000
v 0.0000 -0.0000 10.0000
v 0.0000 0.0000 0.0000
v 400.0000 0.0000 -10.0000
v 400.0000 0.0000 0.0000
v 0.0000 0.0000 -10.0000
v 400.0000 400.0000 -10.0000
v 0.0000 400.0000 -10.0000
v 0.0000 400.0000 0.0000
v 400.0000 400.0000 0.0000
v 400.0000 400.0000 0.0000
v 400.0000 0.0000 0.0000
v 400.0000 400.0000 -10.0000
v 400.0000 0.0000 -10.0000
v 400.0000 400.0000 -10.0000
v 400.0000 0.0000 -10.0000
v 0.0000 400.0000 -10.0000
v 0.0000 0.0000 -10.0000
v 0.0000 400.0000 -10.0000
v 0.0000 0.0000 -10.0000
v 0.0000 400.0000 0.0000
v 0.0000 0.0000 0.0000
v 400.0000 370.0000 -22.2572
v 400.0000 400.0000 -10.0000
v 400.0000 370.0000 -10.0000
v 400.0000 400.0000 -22.2572
v 0.0000 400.0000 -22.2572
v 0.0000 370.0000 -22.2572
v 0.0000 400.0000 -10.0000
v 0.0000 370.0000 -10.0000
v 400.0000 400.0000 10.0000
v 400.0000 370.0000 22.2572
v 400.0000 370.0000 10.0000
v 400.0000 400.0000 22.2572
v 0.0000 400.0000 10.0000
v -0.0000 370.9087 22.2572
v -0.0000 400.0000 22.2572
v 0.0000 370.9087 10.0000
v 0.0000 370.0000 -10.0000
v 88.0000 370.0000 -10.0000
v 0.0000 400.0000 -10.0000
v 88.0000 400.0000 -10.0000
v 200.0000 372.6285 -10.0000
v 200.0000 400.0000 -10.0000
v 312.0000 400.0000 -10.0000
v 312.0000 368.1435 -10.0000
v 400.0000 370.0000 -10.0000
v 400.0000 400.0000 -10.0000
v 312.0000 368.1435 -10.0000
v 400.0000 370.0000 -22.2572
v 400.0000 370.0000 -10.0000
v 312.0000 368.1435 -22.2572
v 200.0000 372.6285 -10.0000
v 200.0000 372.6286 -22.2572
v 88.0000 370.0000 -22.2572
v 88.0000 370.0000 -10.0000
v 0.0000 370.0000 -10.0000
v 0.0000 370.0000 -22.2572
v 88.0000 400.0000 -10.0000
v 0.0000 400.0000 -22.2572
v 0.0000 400.0000 -10.0000
v 88.0000 400.0000 -22.2572
v 200.0000 400.0000 -10.0000
v 200.0000 400.0000 -22.2572
v 312.0000 400.0000 -10.0000
v 312.0000 400.0000 -22.2572
v 400.0000 400.0000 -10.0000
v 400.0000 400.0000 -22.2572
v 140.0000 368.3070 10.0000
v -0.0000 370.9087 22.2572
v 0.0000 370.9087 10.0000
v 140.0000 368.3070 22.2572
v 260.0000 371.4401 10.0000
v 260.0000 371.4401 22.2572
v 400.0000 370.0000 10.0000
v 400.0000 370.0000 22.2572
v 140.0000 400.0000 22.2572
v 0.0000 400.0000 10.0000
v -0.0000 400.0000 22.2572
v 140.0000 400.0000 10.0000
v 259.9999 400.0000 22.2572
v 260.0000 400.0000 10.0000
v 400.0000 400.0000 22.2572
v 400.0000 400.0000 10.0000
v 0.0000 400.0000 -22.2572
v 88.0000 400.0000 -22.2572
v 0.0000 370.0000 -22.2572
v 88.0000 370.0000 -22.2572
v 200.0000 372.6286 -22.2572
v 200.0000 400.0000 -22.2572
v 312.0000 400.0000 -22.2572
v 312.0000 368.1435 -22.2572
v 400.0000 370.0000 -22.2572
v 400.0000 400.0000 -22.2572
v 140.0000 400.0000 10.0000
v 0.0000 370.9087 10.0000
v 0.0000 400.0000 10.0000
v 140.0000 368.3070 10.0000
v 260.0000 371.4401 10.0000
v 260.0000 400.0000 10.0000
v 400.0000 400.0000 10.0000
v 400.0000 370.0000 10.0000
v 400.0000 400.0000 22.2572
v 260.0000 371.4401 22.2572
v 400.0000 370.0000 22.2572
v 259.9999 400.0000 22.2572
v 140.0000 400.0000 22.2572
v 140.0000 368.3070 22.2572
v -0.0000 370.9087 22.2572
v -0.0000 400.0000 22.2572

vt 0.0005 1.0247
vt 0.9990 0.9998
vt 0.9990 1.0247
vt 0.0005 0.9998
vt 0.9990 0.0005
vt 0.0005 0.0005
vt 0.0005 -0.0244
vt 0.9990 -0.0244
vt 0.0005 0.9995
vt 0.0005 0.0010
vt 0.9990 0.9995
vt 0.9990 0.0010
vt 0.9995 0.9995
vt 0.9995 0.0010
vt 1.0244 0.9995
vt 1.0244 0.0010
vt -0.0243 0.9995
vt -0.0243 0.0010
vt 0.0007 0.9995
vt 0.0007 0.0010
vt 0.9990 1.0247
vt 0.0005 0.9998
vt 0.0005 1.0247
vt 0.9990 0.9998
vt 0.0005 0.0005
vt 0.9990 0.0005
vt 0.9990 -0.0244
vt 0.0005 -0.0244
vt -0.0249 0.9995
vt -0.0249 0.0010
vt 0.0001 0.9995
vt 0.0001 0.0010
vt 0.0005 0.9995
vt 0.0005 0.0010
vt 0.9990 0.9995
vt 0.9990 0.0010
vt 0.9995 0.9995
vt 0.9995 0.0010
vt 1.0244 0.9995
vt 1.0244 0.0010
vt 0.9277 0.6267
vt 0.9707 0.6555
vt 0.9277 0.6555
vt 0.9707 0.6267
vt 0.9326 0.6685
vt 0.9756 0.6685
vt 0.9326 0.6973
vt 0.9756 0.6973
vt 0.9707 0.6267
vt 0.9277 0.6555
vt 0.9277 0.6267
vt 0.9707 0.6555
vt 0.9326 0.6685
vt 0.9756 0.6973
vt 0.9326 0.6973
vt 0.9756 0.6685
vt 0.0005 0.4180
vt 0.1271 0.4180
vt 0.0005 0.4614
vt 0.1271 0.4614
vt 0.2881 0.4180
vt 0.2881 0.4614
vt 0.4492 0.4614
vt 0.4492 0.4180
vt 0.5757 0.4180
vt 0.5757 0.4614
vt 0.4492 0.2705
vt 0.5757 0.2417
vt 0.5757 0.2705
vt 0.4492 0.2417
vt 0.2881 0.2705
vt 0.2881 0.2417
vt 0.1271 0.2417
vt 0.1271 0.2705
vt 0.0005 0.2705
vt 0.0005 0.2417
vt 0.4492 0.3032
vt 0.5757 0.2744
vt 0.5757 0.3032
vt 0.4492 0.2744
vt 0.2881 0.3032
vt 0.2881 0.2744
vt 0.1271 0.3032
vt 0.1271 0.2744
vt 0.0005 0.3032
vt 0.0005 0.2744
vt 0.1923 0.2417
vt 0.0005 0.2705
vt 0.0005 0.2417
vt 0.1923 0.2705
vt 0.3840 0.2417
vt 0.3840 0.2705
vt 0.5757 0.2417
vt 0.5757 0.2705
vt 0.3840 0.3032
vt 0.5757 0.2744
vt 0.5757 0.3032
vt 0.3840 0.2744
vt 0.1923 0.3032
vt 0.1923 0.2744
vt 0.0005 0.3032
vt 0.0005 0.2744
vt 0.5757 0.5076
vt 0.4492 0.5076
vt 0.5757 0.4644
vt 0.4492 0.4644
vt 0.2881 0.4644
vt 0.2881 0.5076
vt 0.1271 0.5076
vt 0.1271 0.4644
vt 0.0005 0.4644
vt 0.0005 0.5076
vt 0.3840 0.5076
vt 0.5757 0.4644
vt 0.5757 0.5076
vt 0.3840 0.4644
vt 0.1923 0.4644
vt 0.1923 0.5076
vt 0.0005 0.5076
vt 0.0005 0.4644
vt 0.5757 0.4614
vt 0.3840 0.4180
vt 0.5757 0.4180
vt 0.3840 0.4614
vt 0.1923 0.4614
vt 0.1923 0.4180
vt 0.0005 0.4180
vt 0.0005 0.4614

vn 0.000 -1.000 0.000
vn 0.000 -1.000 0.000
vn 0.000 -1.000 0.000
vn 0.000 -1.000 0.000
vn 0.000 1.000 0.000
vn 0.000 1.000 0.000
vn 0.000 1.000 0.000
vn 0.000 1.000 0.000
vn 0.000 0.000 1.000
vn 0.000 0.000 1.000
vn 0.000 0.000 1.000
vn 0.000 0.000 1.000
vn 1.000 0.000 0.000
vn 1.000 0.000 0.000
vn 1.000 0.000 0.000
vn 1.000 0.000 0.000
vn -1.000 0.000 0.000
vn -1.000 0.000 0.000
vn -1.000 0.000 0.000
vn -1.000 0.000 0.000
vn 0.000 -1.000 0.000
vn 0.000 -1.000 0.000
vn 0.000 -1.000 0.000
vn 0.000 -1.000 0.000
vn 0.000 1.000 0.000
vn 0.000 1.000 0.000
vn 0.000 1.000 0.000
vn 0.000 1.000 0.000
vn 1.000 0.000 0.000
vn 1.000 0.000 0.000
vn 1.000 0.000 0.000
vn 1.000 0.000 0.000
vn 0.000 0.000 -1.000
vn 0.000 0.000 -1.000
vn 0.000 0.000 -1.000
vn 0.000 0.000 -1.000
vn -1.000 0.000 0.000
vn -1.000 0.000 0.000
vn -1.000 0.000 0.000
vn -1.000 0.000 0.000
vn 1.000 0.000 0.000
vn 1.000 0.000 0.000
vn 1.000 0.000 0.000
vn 1.000 0.000 0.000
vn -1.000 0.000 0.000
vn -1.000 0.000 0.000
vn -1.000 0.000 0.000
vn -1.000 0.000 0.000
vn 1.000 0.000 0.000
vn 1.000 0.000 0.000
vn 1.000 0.000 0.000
vn 1.000 0.000 0.000
vn -1.000 0.000 0.000
vn -1.000 0.000 0.000
vn -1.000 0.000 0.000
vn -1.000 0.000 0.000
vn 0.000 0.000 1.000
vn 0.000 0.000 1.000
vn 0.000 0.000 1.000
vn 0.000 0.000 1.000
vn 0.000 0.000 1.000
vn 0.000 0.000 1.000
vn 0.000 0.000 1.000
vn 0.000 0.000 1.000
vn 0.000 0.000 1.000
vn 0.000 0.000 1.000
vn -0.008 -1.000 0.000
vn 0.024 -1.000 0.000
vn 0.024 -1.000 0.000
vn -0.008 -1.000 0.000
vn -0.008 -1.000 0.000
vn -0.008 -1.000 0.000
vn 0.008 -1.000 0.000
vn 0.008 -1.000 0.000
vn 0.000 -1.000 0.000
vn 0.000 -1.000 0.000
vn 0.000 1.000 0.000
vn 0.000 1.000 0.000
vn 0.000 1.000 0.000
vn 0.000 1.000 0.000
vn 0.000 1.000 0.000
vn 0.000 1.000 0.000
vn 0.000 1.000 0.000
vn 0.000 1.000 0.000
vn 0.000 1.000 0.000
vn 0.000 1.000 0.000
vn 0.000 -1.000 0.000
vn -0.016 -1.000 0.000
vn -0.016 -1.000 0.000
vn 0.000 -1.000 0.000
vn 0.008 -1.000 0.000
vn 0.008 -1.000 0.000
vn -0.008 -1.000 0.000
vn -0.008 -1.000 0.000
vn 0.000 1.000 0.000
vn 0.000 1.000 0.000
vn 0.000 1.000 0.000
vn 0.000 1.000 0.000
vn 0.000 1.000 0.000
vn 0.000 1.000 0.000
vn 0.000 1.000 0.000
vn 0.000 1.000 0.000
vn 0.000 0.000 -1.000
vn 0.000 0.000 -1.000
vn 0.000 0.000 -1.000
vn 0.000 0.000 -1.000
vn 0.000 0.000 -1.000
vn 0.000 0.000 -1.000
vn 0.000 0.000 -1.000
vn 0.000 0.000 -1.000
vn 0.000 0.000 -1.000
vn 0.000 0.000 -1.000
vn 0.000 0.000 -1.000
vn 0.000 0.000 -1.000
vn 0.000 0.000 -1.000
vn 0.000 0.000 -1.000
vn 0.000 0.000 -1.000
vn 0.000 0.000 -1.000
vn 0.000 0.000 -1.000
vn 0.000 0.000 -1.000
vn 0.000 0.000 1.000
vn 0.000 0.000 1.000
vn 0.000 0.000 1.000
vn 0.000 0.000 1.000
vn 0.000 0.000 1.000
vn 0.000 0.000 1.000
vn 0.000 0.000 1.000
vn 0.000 0.000 1.000

usemtl /Game/Asian_Village/materials/building_materials/MI_building_wood_01_Inst_MI_building_wood_01_Inst
f 74/74/74 75/75/75 73/73/73
f 68/68/68 67/67/67 70/70/70
f 114/114/114 113/113/113 116/116/116
f 67/67/67 71/71/71 70/70/70
f 106/106/106 105/105/105 104/104/104
f 110/110/110 107/107/107 109/109/109
f 104/104/104 107/107/107 106/106/106
f 108/108/108 109/109/109 107/107/107
f 109/109/109 111/111/111 110/110/110
f 127/127/127 125/125/125 128/128/128
f 125/125/125 127/127/127 126/126/126
f 107/107/107 104/104/104 108/108/108
f 125/125/125 122/122/122 124/124/124
f 122/122/122 121/121/121 124/124/124
f 121/121/121 122/122/122 123/123/123
f 120/120/120 117/117/117 119/119/119
f 118/118/118 119/119/119 117/117/117
f 117/117/117 113/113/113 118/118/118
f 113/113/113 117/117/117 116/116/116
f 41/41/41 42/42/42 43/43/43
f 42/42/42 41/41/41 44/44/44
f 122/122/122 125/125/125 126/126/126
f 48/48/48 47/47/47 46/46/46
f 49/49/49 50/50/50 51/51/51
f 50/50/50 49/49/49 52/52/52
f 53/53/53 54/54/54 55/55/55
f 54/54/54 53/53/53 56/56/56
f 57/57/57 58/58/58 59/59/59
f 60/60/60 59/59/59 58/58/58
f 61/61/61 60/60/60 58/58/58
f 60/60/60 61/61/61 62/62/62
f 61/61/61 63/63/63 62/62/62
f 63/63/63 61/61/61 64/64/64
f 65/65/65 63/63/63 64/64/64
f 63/63/63 65/65/65 66/66/66
f 67/67/67 68/68/68 69/69/69
f 111/111/111 109/109/109 112/112/112
f 113/113/113 114/114/114 115/115/115
f 72/72/72 70/70/70 71/71/71
f 71/71/71 73/73/73 72/72/72
f 73/73/73 71/71/71 74/74/74
f 45/45/45 46/46/46 47/47/47
f 76/76/76 73/73/73 75/75/75
f 77/77/77 78/78/78 79/79/79
f 78/78/78 77/77/77 80/80/80
f 81/81/81 80/80/80 77/77/77
f 80/80/80 81/81/81 82/82/82
f 83/83/83 82/82/82 81/81/81
f 82/82/82 83/83/83 84/84/84
f 83/83/83 85/85/85 84/84/84
f 86/86/86 84/84/84 85/85/85
f 87/87/87 88/88/88 89/89/89
f 88/88/88 87/87/87 90/90/90
f 91/91/91 90/90/90 87/87/87
f 90/90/90 91/91/91 92/92/92
f 91/91/91 93/93/93 92/92/92
f 94/94/94 92/92/92 93/93/93
f 95/95/95 96/96/96 97/97/97
f 96/96/96 95/95/95 98/98/98
f 99/99/99 98/98/98 95/95/95
f 98/98/98 99/99/99 100/100/100
f 99/99/99 101/101/101 100/100/100
f 102/102/102 100/100/100 101/101/101
f 103/103/103 104/104/104 105/105/105
usemtl /Game/Asian_Village/materials/building_materials/base_materials/MI_concrete_02_Inst_MI_concrete_02_Inst
f 2/2/2 1/1/1 4/4/4
f 15/15/15 14/14/14 16/16/16
f 17/17/17 18/18/18 19/19/19
f 11/11/11 10/10/10 12/12/12
f 19/19/19 18/18/18 20/20/20
f 13/13/13 14/14/14 15/15/15
f 5/5/5 6/6/6 7/7/7
f 9/9/9 10/10/10 11/11/11
f 5/5/5 7/7/7 8/8/8
f 1/1/1 2/2/2 3/3/3
usemtl /Game/Asian_Village/materials/building_materials/base_materials/MI_concrete_03_Inst_MI_concrete_03_Inst
f 29/29/29 30/30/30 31/31/31
f 37/37/37 38/38/38 39/39/39
f 35/35/35 34/34/34 36/36/36
f 33/33/33 34/34/34 35/35/35
f 31/31/31 30/30/30 32/32/32
f 39/39/39 38/38/38 40/40/40
f 25/25/25 27/27/27 28/28/28
f 25/25/25 26/26/26 27/27/27
f 22/22/22 21/21/21 24/24/24
f 21/21/21 22/22/22 23/23/23

# dElaernU yb detareneG eliF JBO
