# OBJ File Generated by UnrealEd

mtllib small_wooden_wall1.mtl
g SM_wooden_fence_02_154

v -65.0000 68.6095 4.2607
v -65.0000 68.6095 -4.2802
v -65.0000 62.2038 4.2607
v -65.0000 62.2038 -4.2802
v 65.0000 62.2038 -4.2802
v 65.0000 68.6095 -4.2802
v 65.0000 62.2038 4.2608
v 65.0000 68.6095 4.2608
v -65.0000 24.6355 4.2607
v -65.0000 18.2298 -4.2802
v -65.0000 18.2298 4.2607
v -65.0000 24.6355 -4.2802
v 65.0000 18.2298 4.2608
v 65.0000 18.2298 -4.2802
v 65.0000 24.6355 -4.2802
v 65.0000 24.6355 4.2608
v -5.1407 65.2612 3.7637
v -5.1407 21.0868 3.7637
v 2.4061 65.2612 3.7637
v 2.4061 21.0868 3.7637
v 2.4061 65.2612 3.7637
v 2.4061 21.0868 3.7637
v 2.4061 65.2612 -3.7831
v 2.4061 21.0868 -3.7831
v 2.4061 65.2612 -3.7831
v 2.4061 21.0868 -3.7831
v -5.1407 65.2612 -3.7831
v -5.1407 21.0868 -3.7831
v -5.1407 65.2612 -3.7831
v -5.1407 21.0868 -3.7831
v -5.1407 65.2612 3.7637
v -5.1407 21.0868 3.7637
v -25.8349 -0.8480 3.7637
v -33.3817 -0.8480 3.7637
v -25.8349 -0.8480 -3.7831
v -33.3817 -0.8480 -3.7831
v -25.8349 82.4578 3.7637
v -33.3817 -0.8480 3.7637
v -25.8349 -0.8480 3.7637
v -33.3817 82.4578 3.7637
v -25.8349 82.4578 -3.7831
v -25.8349 -0.8480 3.7637
v -25.8349 -0.8480 -3.7831
v -25.8349 82.4578 3.7637
v -25.8349 82.4578 -3.7831
v -33.3817 -0.8480 -3.7831
v -33.3817 82.4578 -3.7831
v -25.8349 -0.8480 -3.7831
v -33.3817 82.4578 -3.7831
v -33.3817 -0.8480 3.7637
v -33.3817 82.4578 3.7637
v -33.3817 -0.8480 -3.7831
v 26.2266 -0.8480 -3.7831
v 33.7734 -0.8480 -3.7831
v 26.2266 -0.8480 3.7637
v 33.7734 -0.8480 3.7637
v 33.7734 81.3438 -3.7831
v 26.2266 -0.8480 -3.7831
v 26.2266 81.3438 -3.7831
v 33.7734 -0.8480 -3.7831
v 26.2266 81.3438 -3.7831
v 26.2266 -0.8480 3.7637
v 26.2266 81.3438 3.7637
v 26.2266 -0.8480 -3.7831
v 26.2266 81.3438 3.7637
v 33.7734 -0.8480 3.7637
v 33.7734 81.3438 3.7637
v 26.2266 -0.8480 3.7637
v 33.7734 81.3438 -3.7831
v 33.7734 -0.8480 3.7637
v 33.7734 -0.8480 -3.7831
v 33.7734 81.3438 3.7637
v -65.0000 80.1042 5.7866
v -65.0000 88.7906 -5.7953
v -65.0000 80.1042 -5.7953
v -65.0000 88.7906 5.7866
v 65.0000 80.1042 -5.7953
v 65.0000 88.7906 5.7866
v 65.0000 80.1042 5.7866
v 65.0000 88.7906 -5.7953
v 25.2404 67.7632 -4.2802
v 65.0000 68.6095 4.2608
v 65.0000 68.6095 -4.2802
v 25.2403 67.7632 4.2608
v -22.0841 69.4362 -4.2802
v -22.0841 69.4362 4.2607
v -65.0000 68.6095 -4.2802
v -65.0000 68.6095 4.2607
v 65.0000 62.2038 4.2608
v 25.2403 61.3575 4.2608
v 65.0000 62.2038 -4.2802
v 25.2403 61.3575 -4.2802
v -22.0841 63.0305 4.2607
v -22.0841 63.0305 -4.2802
v -65.0000 62.2038 4.2607
v -65.0000 62.2038 -4.2802
v 25.2404 19.1193 4.2608
v 65.0000 18.2298 -4.2802
v 65.0000 18.2298 4.2608
v 25.2403 19.1193 -4.2802
v -22.0841 17.4466 4.2607
v -22.0841 17.4466 -4.2802
v -65.0000 18.2298 4.2607
v -65.0000 18.2298 -4.2802
v 21.3289 79.8293 5.7866
v 65.0000 80.1042 -5.7953
v 65.0000 80.1042 5.7866
v 21.3288 79.8293 -5.7953
v -32.0221 81.3118 5.7866
v -32.0221 81.3118 -5.7953
v -65.0000 80.1042 5.7866
v -65.0000 80.1042 -5.7953
v -32.0221 89.9982 5.7866
v -65.0000 88.7906 -5.7953
v -65.0000 88.7906 5.7866
v -32.0221 89.9982 -5.7953
v 21.3289 88.5157 5.7866
v 21.3289 88.5157 -5.7953
v 65.0000 88.7906 -5.7953
v 65.0000 88.7906 5.7866
v -22.0841 63.0305 4.2607
v -65.0000 68.6095 4.2607
v -65.0000 62.2038 4.2607
v -22.0841 69.4362 4.2607
v 25.2403 67.7632 4.2608
v 25.2403 61.3575 4.2608
v 65.0000 62.2038 4.2608
v 65.0000 68.6095 4.2608
v -65.0000 68.6095 -4.2802
v -22.0841 63.0305 -4.2802
v -65.0000 62.2038 -4.2802
v -22.0841 69.4362 -4.2802
v 25.2404 67.7632 -4.2802
v 25.2403 61.3575 -4.2802
v 65.0000 62.2038 -4.2802
v 65.0000 68.6095 -4.2802
v -22.0841 23.8523 -4.2802
v -65.0000 18.2298 -4.2802
v -65.0000 24.6355 -4.2802
v -22.0841 17.4466 -4.2802
v 25.2403 19.1193 -4.2802
v 25.2403 25.5250 -4.2802
v 65.0000 24.6355 -4.2802
v 65.0000 18.2298 -4.2802
v 25.2403 25.5250 -4.2802
v 65.0000 24.6355 4.2608
v 65.0000 24.6355 -4.2802
v 25.2403 25.5250 4.2608
v -22.0841 23.8523 4.2607
v -22.0841 23.8523 -4.2802
v -65.0000 24.6355 -4.2802
v -65.0000 24.6355 4.2607
v -65.0000 18.2298 4.2607
v -22.0841 23.8523 4.2607
v -65.0000 24.6355 4.2607
v -22.0841 17.4466 4.2607
v 25.2404 19.1193 4.2608
v 25.2403 25.5250 4.2608
v 65.0000 24.6355 4.2608
v 65.0000 18.2298 4.2608
v 21.3289 88.5157 5.7866
v 65.0000 80.1042 5.7866
v 65.0000 88.7906 5.7866
v 21.3289 79.8293 5.7866
v -32.0221 81.3118 5.7866
v -32.0221 89.9982 5.7866
v -65.0000 88.7906 5.7866
v -65.0000 80.1042 5.7866
v -32.0221 81.3118 -5.7953
v -65.0000 80.1042 -5.7953
v -65.0000 88.7906 -5.7953
v -32.0221 89.9982 -5.7953
v 21.3289 88.5157 -5.7953
v 21.3288 79.8293 -5.7953
v 65.0000 80.1042 -5.7953
v 65.0000 88.7906 -5.7953

vt 0.9897 0.8313
vt 0.9609 0.8313
vt 0.9897 0.8097
vt 0.9609 0.8097
vt 0.9287 0.2148
vt 0.9287 0.2363
vt 0.8999 0.2148
vt 0.8999 0.2363
vt 0.9609 0.8097
vt 0.9897 0.8313
vt 0.9609 0.8313
vt 0.9897 0.8097
vt 0.9287 0.2363
vt 0.8999 0.2363
vt 0.8999 0.2148
vt 0.9287 0.2148
vt 0.5269 0.8589
vt 0.4426 0.8589
vt 0.5269 0.8446
vt 0.4426 0.8446
vt 0.5269 0.8774
vt 0.4426 0.8774
vt 0.5269 0.8632
vt 0.4426 0.8632
vt 0.7588 0.9841
vt 0.6743 0.9841
vt 0.7588 0.9697
vt 0.6743 0.9697
vt 0.5269 0.8403
vt 0.4426 0.8403
vt 0.5269 0.8260
vt 0.4426 0.8260
vt 0.9414 0.2617
vt 0.9556 0.2617
vt 0.9414 0.2759
vt 0.9556 0.2759
vt 0.4814 0.8446
vt 0.3574 0.8589
vt 0.3574 0.8446
vt 0.4814 0.8589
vt 0.4814 0.8632
vt 0.3574 0.8774
vt 0.3574 0.8632
vt 0.4814 0.8774
vt 0.7134 0.9841
vt 0.5894 0.9697
vt 0.7134 0.9697
vt 0.5894 0.9841
vt 0.4814 0.8403
vt 0.3574 0.8260
vt 0.4814 0.8260
vt 0.3574 0.8403
vt 0.9414 0.2617
vt 0.9556 0.2617
vt 0.9414 0.2759
vt 0.9556 0.2759
vt 0.4814 0.8589
vt 0.3574 0.8446
vt 0.4814 0.8446
vt 0.3574 0.8589
vt 0.4814 0.8774
vt 0.3574 0.8632
vt 0.4814 0.8632
vt 0.3574 0.8774
vt 0.7134 0.9841
vt 0.5894 0.9697
vt 0.7134 0.9697
vt 0.5894 0.9841
vt 0.4814 0.8260
vt 0.3574 0.8403
vt 0.3574 0.8260
vt 0.4814 0.8403
vt 0.2551 0.9984
vt 0.2827 0.9871
vt 0.2827 0.9984
vt 0.2551 0.9871
vt 0.9277 0.4712
vt 0.9556 0.4600
vt 0.9556 0.4712
vt 0.9277 0.4600
vt 0.3840 0.3589
vt 0.5757 0.3301
vt 0.5757 0.3589
vt 0.3840 0.3301
vt 0.1923 0.3589
vt 0.1923 0.3301
vt 0.0005 0.3589
vt 0.0005 0.3301
vt 0.5757 0.4146
vt 0.3840 0.4146
vt 0.5757 0.3857
vt 0.3840 0.3857
vt 0.1923 0.4146
vt 0.1923 0.3857
vt 0.0005 0.4146
vt 0.0005 0.3857
vt 0.3840 0.3589
vt 0.5757 0.3301
vt 0.5757 0.3589
vt 0.3840 0.3301
vt 0.1923 0.3589
vt 0.1923 0.3301
vt 0.0005 0.3589
vt 0.0005 0.3301
vt 0.6768 0.0889
vt 0.5894 0.1167
vt 0.5894 0.0889
vt 0.6768 0.1167
vt 0.8003 0.0889
vt 0.8003 0.1167
vt 0.8623 0.0889
vt 0.8623 0.1167
vt 0.6514 0.0562
vt 0.5894 0.0840
vt 0.5894 0.0562
vt 0.6514 0.0840
vt 0.7749 0.0562
vt 0.7749 0.0840
vt 0.8623 0.0840
vt 0.8623 0.0562
vt 0.1923 0.3066
vt 0.0005 0.3286
vt 0.0005 0.3066
vt 0.1923 0.3286
vt 0.3840 0.3286
vt 0.3840 0.3066
vt 0.5757 0.3066
vt 0.5757 0.3286
vt 0.0005 0.3623
vt 0.1923 0.3838
vt 0.0005 0.3838
vt 0.1923 0.3623
vt 0.3840 0.3623
vt 0.3840 0.3838
vt 0.5757 0.3838
vt 0.5757 0.3623
vt 0.1923 0.3066
vt 0.0005 0.3286
vt 0.0005 0.3066
vt 0.1923 0.3286
vt 0.3840 0.3286
vt 0.3840 0.3066
vt 0.5757 0.3066
vt 0.5757 0.3286
vt 0.3840 0.4146
vt 0.5757 0.3857
vt 0.5757 0.4146
vt 0.3840 0.3857
vt 0.1923 0.3857
vt 0.1923 0.4146
vt 0.0005 0.4146
vt 0.0005 0.3857
vt 0.0005 0.3623
vt 0.1923 0.3838
vt 0.0005 0.3838
vt 0.1923 0.3623
vt 0.3840 0.3623
vt 0.3840 0.3838
vt 0.5757 0.3838
vt 0.5757 0.3623
vt 0.6768 0.0425
vt 0.5894 0.0537
vt 0.5894 0.0425
vt 0.6768 0.0537
vt 0.8003 0.0537
vt 0.8003 0.0425
vt 0.8623 0.0425
vt 0.8623 0.0537
vt 0.6514 0.0400
vt 0.5894 0.0400
vt 0.5894 0.0288
vt 0.6514 0.0288
vt 0.7749 0.0288
vt 0.7749 0.0400
vt 0.8623 0.0400
vt 0.8623 0.0288

vn -1.000 0.000 0.000
vn -1.000 0.000 0.000
vn -1.000 0.000 0.000
vn -1.000 0.000 0.000
vn 1.000 0.000 0.000
vn 1.000 0.000 0.000
vn 1.000 0.000 0.000
vn 1.000 0.000 0.000
vn -1.000 0.000 0.000
vn -1.000 0.000 0.000
vn -1.000 0.000 0.000
vn -1.000 0.000 0.000
vn 1.000 0.000 0.000
vn 1.000 0.000 0.000
vn 1.000 0.000 0.000
vn 1.000 0.000 0.000
vn 0.000 0.000 1.000
vn 0.000 0.000 1.000
vn 0.000 0.000 1.000
vn 0.000 0.000 1.000
vn 1.000 0.000 0.000
vn 1.000 0.000 0.000
vn 1.000 0.000 0.000
vn 1.000 0.000 0.000
vn 0.000 0.000 -1.000
vn 0.000 0.000 -1.000
vn 0.000 0.000 -1.000
vn 0.000 0.000 -1.000
vn -1.000 0.000 0.000
vn -1.000 0.000 0.000
vn -1.000 0.000 0.000
vn -1.000 0.000 0.000
vn 0.000 -1.000 0.000
vn 0.000 -1.000 0.000
vn 0.000 -1.000 0.000
vn 0.000 -1.000 0.000
vn 0.000 0.000 1.000
vn 0.000 0.000 1.000
vn 0.000 0.000 1.000
vn 0.000 0.000 1.000
vn 1.000 0.000 0.000
vn 1.000 0.000 0.000
vn 1.000 0.000 0.000
vn 1.000 0.000 0.000
vn 0.000 0.000 -1.000
vn 0.000 0.000 -1.000
vn 0.000 0.000 -1.000
vn 0.000 0.000 -1.000
vn -1.000 0.000 0.000
vn -1.000 0.000 0.000
vn -1.000 0.000 0.000
vn -1.000 0.000 0.000
vn 0.000 -1.000 0.000
vn 0.000 -1.000 0.000
vn 0.000 -1.000 0.000
vn 0.000 -1.000 0.000
vn 0.000 0.000 -1.000
vn 0.000 0.000 -1.000
vn 0.000 0.000 -1.000
vn 0.000 0.000 -1.000
vn -1.000 0.000 0.000
vn -1.000 0.000 0.000
vn -1.000 0.000 0.000
vn -1.000 0.000 0.000
vn 0.000 0.000 1.000
vn 0.000 0.000 1.000
vn 0.000 0.000 1.000
vn 0.000 0.000 1.000
vn 1.000 0.000 0.000
vn 1.000 0.000 0.000
vn 1.000 0.000 0.000
vn 1.000 0.000 0.000
vn -1.000 0.000 0.000
vn -1.000 0.000 0.000
vn -1.000 0.000 0.000
vn -1.000 0.000 0.000
vn 1.000 0.000 0.000
vn 1.000 0.000 0.000
vn 1.000 0.000 0.000
vn 1.000 0.000 0.000
vn 0.008 1.000 0.000
vn -0.024 1.000 0.000
vn -0.024 1.000 0.000
vn 0.008 1.000 0.000
vn 0.008 1.000 0.000
vn 0.008 1.000 0.000
vn -0.016 1.000 0.000
vn -0.016 1.000 0.000
vn 0.024 -1.000 0.000
vn -0.008 -1.000 0.000
vn 0.024 -1.000 0.000
vn -0.008 -1.000 0.000
vn -0.008 -1.000 0.000
vn -0.008 -1.000 0.000
vn 0.016 -1.000 0.000
vn 0.016 -1.000 0.000
vn 0.008 -1.000 0.000
vn -0.024 -1.000 0.000
vn -0.024 -1.000 0.000
vn 0.008 -1.000 0.000
vn 0.008 -1.000 0.000
vn 0.008 -1.000 0.000
vn -0.016 -1.000 0.000
vn -0.016 -1.000 0.000
vn -0.008 -1.000 0.000
vn 0.008 -1.000 0.000
vn 0.008 -1.000 0.000
vn -0.008 -1.000 0.000
vn 0.008 -1.000 0.000
vn 0.008 -1.000 0.000
vn 0.039 -1.000 0.000
vn 0.039 -1.000 0.000
vn -0.008 1.000 0.000
vn -0.039 1.000 0.000
vn -0.039 1.000 0.000
vn -0.008 1.000 0.000
vn 0.008 1.000 0.000
vn 0.008 1.000 0.000
vn -0.008 1.000 0.000
vn -0.008 1.000 0.000
vn 0.000 0.000 1.000
vn 0.000 0.000 1.000
vn 0.000 0.000 1.000
vn 0.000 0.000 1.000
vn 0.000 0.000 1.000
vn 0.000 0.000 1.000
vn 0.000 0.000 1.000
vn 0.000 0.000 1.000
vn 0.000 0.000 -1.000
vn 0.000 0.000 -1.000
vn 0.000 0.000 -1.000
vn 0.000 0.000 -1.000
vn 0.000 0.000 -1.000
vn 0.000 0.000 -1.000
vn 0.000 0.000 -1.000
vn 0.000 0.000 -1.000
vn 0.000 0.000 -1.000
vn 0.000 0.000 -1.000
vn 0.000 0.000 -1.000
vn 0.000 0.000 -1.000
vn 0.000 0.000 -1.000
vn 0.000 0.000 -1.000
vn 0.000 0.000 -1.000
vn 0.000 0.000 -1.000
vn -0.008 1.000 0.000
vn 0.024 1.000 0.000
vn 0.024 1.000 0.000
vn -0.008 1.000 0.000
vn -0.008 1.000 0.000
vn -0.008 1.000 0.000
vn 0.016 1.000 0.000
vn 0.016 1.000 0.000
vn 0.000 0.000 1.000
vn 0.000 0.000 1.000
vn 0.000 0.000 1.000
vn 0.000 0.000 1.000
vn 0.000 0.000 1.000
vn 0.000 0.000 1.000
vn 0.000 0.000 1.000
vn 0.000 0.000 1.000
vn 0.000 0.000 1.000
vn 0.000 0.000 1.000
vn 0.000 0.000 1.000
vn 0.000 0.000 1.000
vn 0.000 0.000 1.000
vn 0.000 0.000 1.000
vn 0.000 0.000 1.000
vn 0.000 0.000 1.000
vn 0.000 0.000 -1.000
vn 0.000 0.000 -1.000
vn 0.000 0.000 -1.000
vn 0.000 0.000 -1.000
vn 0.000 0.000 -1.000
vn 0.000 0.000 -1.000
vn 0.000 0.000 -1.000
vn 0.000 0.000 -1.000

usemtl /Game/Asian_Village/materials/building_materials/MI_building_wood_01_Inst_MI_building_wood_01_Inst
f 101/101/101 103/103/103 102/102/102
f 2/2/2 4/4/4 3/3/3
f 5/5/5 6/6/6 7/7/7
f 7/7/7 6/6/6 8/8/8
f 9/9/9 10/10/10 11/11/11
f 10/10/10 9/9/9 12/12/12
f 13/13/13 14/14/14 15/15/15
f 13/13/13 15/15/15 16/16/16
f 17/17/17 18/18/18 19/19/19
f 19/19/19 18/18/18 20/20/20
f 21/21/21 22/22/22 23/23/23
f 23/23/23 22/22/22 24/24/24
f 25/25/25 26/26/26 27/27/27
f 27/27/27 26/26/26 28/28/28
f 29/29/29 30/30/30 31/31/31
f 31/31/31 30/30/30 32/32/32
f 33/33/33 34/34/34 35/35/35
f 34/34/34 36/36/36 35/35/35
f 37/37/37 38/38/38 39/39/39
f 38/38/38 37/37/37 40/40/40
f 41/41/41 42/42/42 43/43/43
f 42/42/42 41/41/41 44/44/44
f 45/45/45 46/46/46 47/47/47
f 46/46/46 45/45/45 48/48/48
f 49/49/49 50/50/50 51/51/51
f 50/50/50 49/49/49 52/52/52
f 53/53/53 54/54/54 55/55/55
f 54/54/54 56/56/56 55/55/55
f 57/57/57 58/58/58 59/59/59
f 58/58/58 57/57/57 60/60/60
f 61/61/61 62/62/62 63/63/63
f 62/62/62 61/61/61 64/64/64
f 65/65/65 66/66/66 67/67/67
f 66/66/66 65/65/65 68/68/68
f 69/69/69 70/70/70 71/71/71
f 70/70/70 69/69/69 72/72/72
f 73/73/73 74/74/74 75/75/75
f 74/74/74 73/73/73 76/76/76
f 77/77/77 78/78/78 79/79/79
f 78/78/78 77/77/77 80/80/80
f 81/81/81 82/82/82 83/83/83
f 82/82/82 81/81/81 84/84/84
f 81/81/81 85/85/85 84/84/84
f 84/84/84 85/85/85 86/86/86
f 85/85/85 87/87/87 86/86/86
f 86/86/86 87/87/87 88/88/88
f 89/89/89 90/90/90 91/91/91
f 91/91/91 90/90/90 92/92/92
f 93/93/93 92/92/92 90/90/90
f 92/92/92 93/93/93 94/94/94
f 93/93/93 95/95/95 94/94/94
f 94/94/94 95/95/95 96/96/96
f 97/97/97 98/98/98 99/99/99
f 98/98/98 97/97/97 100/100/100
f 97/97/97 101/101/101 100/100/100
f 100/100/100 101/101/101 102/102/102
f 1/1/1 2/2/2 3/3/3
f 102/102/102 103/103/103 104/104/104
f 105/105/105 106/106/106 107/107/107
f 106/106/106 105/105/105 108/108/108
f 109/109/109 108/108/108 105/105/105
f 108/108/108 109/109/109 110/110/110
f 111/111/111 110/110/110 109/109/109
f 110/110/110 111/111/111 112/112/112
f 113/113/113 114/114/114 115/115/115
f 114/114/114 113/113/113 116/116/116
f 117/117/117 116/116/116 113/113/113
f 116/116/116 117/117/117 118/118/118
f 117/117/117 119/119/119 118/118/118
f 117/117/117 120/120/120 119/119/119
f 121/121/121 122/122/122 123/123/123
f 124/124/124 122/122/122 121/121/121
f 121/121/121 125/125/125 124/124/124
f 125/125/125 121/121/121 126/126/126
f 127/127/127 125/125/125 126/126/126
f 128/128/128 125/125/125 127/127/127
f 129/129/129 130/130/130 131/131/131
f 130/130/130 129/129/129 132/132/132
f 130/130/130 132/132/132 133/133/133
f 134/134/134 130/130/130 133/133/133
f 133/133/133 135/135/135 134/134/134
f 135/135/135 133/133/133 136/136/136
f 137/137/137 138/138/138 139/139/139
f 140/140/140 138/138/138 137/137/137
f 137/137/137 141/141/141 140/140/140
f 141/141/141 137/137/137 142/142/142
f 143/143/143 141/141/141 142/142/142
f 144/144/144 141/141/141 143/143/143
f 145/145/145 146/146/146 147/147/147
f 146/146/146 145/145/145 148/148/148
f 145/145/145 149/149/149 148/148/148
f 149/149/149 145/145/145 150/150/150
f 150/150/150 151/151/151 149/149/149
f 149/149/149 151/151/151 152/152/152
f 153/153/153 154/154/154 155/155/155
f 154/154/154 153/153/153 156/156/156
f 154/154/154 156/156/156 157/157/157
f 158/158/158 154/154/154 157/157/157
f 157/157/157 159/159/159 158/158/158
f 159/159/159 157/157/157 160/160/160
f 161/161/161 162/162/162 163/163/163
f 162/162/162 161/161/161 164/164/164
f 161/161/161 165/165/165 164/164/164
f 165/165/165 161/161/161 166/166/166
f 167/167/167 165/165/165 166/166/166
f 165/165/165 167/167/167 168/168/168
f 169/169/169 170/170/170 171/171/171
f 169/169/169 171/171/171 172/172/172
f 173/173/173 169/169/169 172/172/172
f 169/169/169 173/173/173 174/174/174
f 173/173/173 175/175/175 174/174/174
f 175/175/175 173/173/173 176/176/176

# dElaernU yb detareneG eliF JBO
